<?xml version="1.0" encoding="UTF-8"?>
<svg xmlns="http://www.w3.org/2000/svg" viewBox="0 0 487 690">
  <g id="Layer_1" data-name="Layer 1">
    <g>
      <path d="M11.07,56.5H474.93c2.52,0,4.57,2.05,4.57,4.57v114.85c0,2.52-2.05,4.57-4.57,4.57H11.07c-2.52,0-4.57-2.05-4.57-4.57V61.07c0-2.52,2.05-4.57,4.57-4.57Z"/>
      <path d="M474.93,57c2.25,0,4.07,1.83,4.07,4.07v114.85c0,2.25-1.83,4.07-4.07,4.07H11.07c-2.25,0-4.07-1.83-4.07-4.07V61.07c0-2.25,1.83-4.07,4.07-4.07H474.93m0-1H11.07c-2.8,0-5.07,2.27-5.07,5.07v114.85c0,2.8,2.27,5.07,5.07,5.07H474.93c2.8,0,5.07-2.27,5.07-5.07V61.07c0-2.8-2.27-5.07-5.07-5.07h0Z"/>
    </g>
  </g>
  <g id="Layer_1_copy" data-name="Layer 1 copy">
    <g>
      <path d="M11.04,282.5H474.96c2.51,0,4.54,2.04,4.54,4.54v115.91c0,2.51-2.04,4.54-4.54,4.54H11.04c-2.51,0-4.54-2.04-4.54-4.54v-115.91c0-2.51,2.04-4.54,4.54-4.54Z"/>
      <path d="M474.96,283c2.23,0,4.04,1.81,4.04,4.04v115.91c0,2.23-1.81,4.04-4.04,4.04H11.04c-2.23,0-4.04-1.81-4.04-4.04v-115.91c0-2.23,1.81-4.04,4.04-4.04H474.96m0-1H11.04c-2.78,0-5.04,2.26-5.04,5.04v115.91c0,2.78,2.26,5.04,5.04,5.04H474.96c2.78,0,5.04-2.26,5.04-5.04v-115.91c0-2.78-2.26-5.04-5.04-5.04h0Z"/>
    </g>
  </g>
  <g id="Layer_1_copy_2" data-name="Layer 1 copy 2">
    <g>
      <path d="M12.06,509.5H475.94c2.52,0,4.56,2.05,4.56,4.56v114.87c0,2.52-2.04,4.56-4.56,4.56H12.06c-2.52,0-4.56-2.04-4.56-4.56v-114.87c0-2.52,2.05-4.56,4.56-4.56Z"/>
      <path d="M475.94,510c2.24,0,4.06,1.82,4.06,4.06v114.87c0,2.24-1.82,4.06-4.06,4.06H12.06c-2.24,0-4.06-1.82-4.06-4.06v-114.87c0-2.24,1.82-4.06,4.06-4.06H475.94m0-1H12.06c-2.8,0-5.06,2.27-5.06,5.06v114.87c0,2.8,2.27,5.06,5.06,5.06H475.94c2.8,0,5.06-2.27,5.06-5.06v-114.87c0-2.8-2.27-5.06-5.06-5.06h0Z"/>
    </g>
  </g>
</svg>