<?xml version="1.0" encoding="UTF-8"?>
<svg xmlns="http://www.w3.org/2000/svg" viewBox="0 0 487 690">
  <g id="REUNAT">
    <path d="M130.49,77.76c4.05,0,8.15,.07,12.19,.2,30.93,1.03,51.61,5.53,77.78,11.24,21.36,4.66,45.57,9.94,76.91,13.38,20.66,2.27,41.78,3.42,62.77,3.42,14.49,0,29.12-.54,43.86-1.62v498.52c-25.14,6.25-49.69,9.41-73.37,9.41-7.82,0-15.73-.35-23.49-1.03-20.39-1.79-34.46-5.33-53.92-10.23-18.15-4.56-38.72-9.74-67.43-14.21-32.75-5.1-66.24-7.69-99.55-7.69-1.74,0-3.48,0-5.23,.02V81.07c16.52-2.2,33.05-3.31,49.49-3.31m0-70c-47.93,0-87.85,7.85-115.8,15.25-2.18,.58-3.7,2.55-3.7,4.81V648.37c0,2.78,2.26,4.97,4.97,4.97,.2,0,.4-.01,.6-.04,19.09-2.28,42.62-4.17,69.66-4.16,26.53,0,56.43,1.82,88.77,6.86,56.23,8.76,78.49,20.82,126,25,8.96,.79,18.85,1.3,29.63,1.3,36.78,0,83.94-5.94,140.16-27.08,1.93-.73,3.21-2.59,3.21-4.65V30.07c0-2.8-2.28-4.97-4.96-4.97-.32,0-.64,.03-.97,.1-41.06,8.07-77.24,10.8-107.93,10.8-21.02,0-39.47-1.28-55.14-3-64.18-7.04-94.44-22.83-160-25-4.91-.16-9.75-.24-14.51-.24h0Z"/>
  </g>
  <g id="TÄYTTEET">
    <g>
      <rect x="73" y="514" width="337" height="118"/>
      <path d="M400,524v98H83v-98H400m20-20H63v138H420v-138h0Z"/>
    </g>
    <g>
      <rect x="73" y="410" width="337" height="34"/>
      <path d="M400,420v14H83v-14H400m20-20H63v54H420v-54h0Z"/>
    </g>
    <g>
      <rect x="59" y="296" width="362" height="45"/>
      <path d="M411,306v25H69v-25H411m20-20H49v65H431v-65h0Z"/>
    </g>
    <g>
      <rect x="54" y="192" width="367" height="33"/>
      <path d="M411,202v13H64v-13H411m20-20H44v53H431v-53h0Z"/>
    </g>
    <g>
      <rect x="41" y="74" width="405" height="47"/>
      <path d="M436,84v27H51v-27H436m20-20H31v67H456V64h0Z"/>
    </g>
    <g>
      <rect x="266" y="120" width="144" height="82"/>
      <path d="M400,130v62h-124v-62h124m20-20h-164v102h164V110h0Z"/>
    </g>
  </g>
  <g id="RIVIT">
    <g id="NELJÄSRIVI">
      <path d="M390,467v25H95v-25H390m20-20H75v65H410v-65h0Z"/>
    </g>
    <g id="KOLMASRIVI">
      <path d="M390,359v25H95v-25H390m20-20H75v65H410v-65h0Z"/>
    </g>
    <g id="TOKARIVI">
      <path d="M390,251v25H95v-25H390m20-20H75v65H410v-65h0Z"/>
    </g>
    <g id="EKARIVI">
      <path d="M244,143v25H96v-25H244m20-20H76v65h188V123h0Z"/>
    </g>
  </g>
</svg>