<?xml version="1.0" encoding="UTF-8"?>
<svg id="NUOLI" xmlns="http://www.w3.org/2000/svg" viewBox="0 0 487 690">
  <defs>
    <style>
      .cls-1 {
        fill: #fff;
      }

      .cls-2 {
        fill: #ff6e31;
      }
    </style>
  </defs>
  <g>
    <path d="M243,671.43c-22.29,0-43.24-13.48-58.99-37.96C118.19,531.17,7.3,345.72,4.11,253.18c-2.11-61.27,20.74-119.88,64.34-165.01C113.95,41.09,177.65,14.08,243.23,14.08s129.46,27.06,174.98,74.24c43.55,45.13,66.33,103.68,64.14,164.86-3.2,89.52-114.45,276.63-180.49,380.2-15.64,24.54-36.55,38.05-58.87,38.05Z"/>
    <path d="M243.23,14.58c33.3,0,65.7,6.71,96.29,19.93,29.68,12.83,56.03,31.05,78.33,54.16,43.45,45.03,66.18,103.45,64,164.5-1.39,38.98-23.31,100.18-65.14,181.89-37.07,72.42-83.15,147.68-115.27,198.06-15.55,24.39-36.31,37.82-58.45,37.82s-42.92-13.4-58.57-37.73c-32.06-49.83-78.03-124.4-114.98-196.66C27.82,355.14,6,293.44,4.61,253.17c-2.11-61.14,20.69-119.61,64.2-164.64,22.28-23.07,48.61-41.25,78.24-54.05,30.56-13.2,62.91-19.89,96.18-19.89m0-1C110.9,13.58-.95,120.94,3.61,253.2c3.15,91.46,110.04,271.83,179.98,380.55,16.37,25.45,37.9,38.19,59.41,38.19s43.01-12.75,59.29-38.28c69.92-109.67,177.41-291.9,180.57-380.45C487.58,120.95,375.57,13.58,243.23,13.58h0Z"/>
  </g>
  <g>
    <circle class="cls-2" cx="245.64" cy="239.63" r="92.18"/>
    <path class="cls-1" d="M245.64,159.95c43.94,0,79.68,35.74,79.68,79.68s-35.74,79.68-79.68,79.68-79.68-35.74-79.68-79.68,35.74-79.68,79.68-79.68m0-25c-57.81,0-104.68,46.87-104.68,104.68s46.87,104.68,104.68,104.68,104.68-46.87,104.68-104.68-46.87-104.68-104.68-104.68h0Z"/>
  </g>
</svg>