<?xml version="1.0" encoding="UTF-8"?>
<svg xmlns="http://www.w3.org/2000/svg" xmlns:xlink="http://www.w3.org/1999/xlink" viewBox="0 0 665 854">
  <defs>
    <style>
      .cls-1 {
        stroke-width: 8px;
      }

      .cls-1, .cls-2, .cls-3, .cls-4 {
        fill: none;
      }

      .cls-1, .cls-2, .cls-4 {
        stroke: #000;
        stroke-miterlimit: 10;
      }

      .cls-2 {
        filter: url(#drop-shadow-2);
        stroke-width: 22px;
      }

      .cls-4 {
        filter: url(#drop-shadow-1);
        stroke-width: 10px;
      }
    </style>
    <filter id="drop-shadow-1" filterUnits="userSpaceOnUse">
      <feOffset dx="5" dy="5"/>
      <feGaussianBlur result="blur" stdDeviation="8"/>
      <feFlood flood-color="#000" flood-opacity=".25"/>
      <feComposite in2="blur" operator="in"/>
      <feComposite in="SourceGraphic"/>
    </filter>
    <filter id="drop-shadow-2" filterUnits="userSpaceOnUse">
      <feOffset dx="5" dy="5"/>
      <feGaussianBlur result="blur-2" stdDeviation="8"/>
      <feFlood flood-color="#000" flood-opacity=".25"/>
      <feComposite in2="blur-2" operator="in"/>
      <feComposite in="SourceGraphic"/>
    </filter>
  </defs>
  <g id="Layer_11" data-name="Layer 11">
    <path class="cls-4" d="M96,705c13.19-145.36,17.65-293.46-7-429-12.23-17.19-13.34-29.68-12-38,1.07-6.64,3.29-8.05,6-20,4.59-22.61,3.95-36.57-1-57-20.59,.18-37.17-12.9-40-29-3.05-17.35,11.27-30.36,12-31,11.27-9.91,28.17-11.95,43-5,.27-19.25,13.71-36.56,32-42,26.1-8.9,50.66,7.67,54,10C212.02-4.81,304.88-1.91,332,68c.98-1.17,24.42-27.99,58-22,18.3,3.26,35.8,15.6,43,32,6.26,14.25,2.03,25.38,8,28,8.55,3.76,17.61-18.86,41-24,22.69-4.98,42,10.19,43,11,24.05,20.09,21.33,48.68,14,63,1.87,22.55,3.89,45.46,6,68,6.73-1.85,16.32-4,28-5,12.9-1.11,24.82-2.13,39,2,38.45,10.03,47.96,35.82,37,74-16.7,61.12-19.38,137.24-22,207,2.62,97.48-67.43,152.58-142,170,.73,12.72,2.16,27.13,4,40,12.34,2.13,32.92,7.79,44,12,22.73,8.19,33.13,15.05,36,17,12.73,8.63,14.03,13.16,14,16-.04,3.91-2.64,7.32-7,11-14.52,12.23-35.69,16.42-48,18-20.67,16.67-41.33,33.33-62,50l-9-36c-59.79,12.58-181.65,19.4-242,14-60.11-3.35-90.16-5.02-121-14-24.1-7.01-81.77-23.8-82-47-.18-18.37,35.71-37.09,84-48Z"/>
    <path class="cls-2" d="M478,612c38.02-4.87,69.78-31.2,83-68,7.21-17.49,8.91-39.9,12-84,4.2-62.73,.43-46.61,17-108,13.74-51.6,14.44-57.8,11-64-9.91-17.9-43.82-17.14-59-16-17.91,66.15-23.11,27.67-24-41-25.12,108.66-42.06,265.01-40,381Z"/>
  </g>
  <g id="Layer_9" data-name="Layer 9">
    <path class="cls-1" d="M467,832l-18-66c27.33,5.33,54.67,10.67,82,16-21.33,16.67-42.67,33.33-64,50Z"/>
  </g>
  <g id="TÄYTTEET">
    <path d="M503,299H90c-11.5-28.21-11.45-49.72-9-64.53,1.11-6.72,8.56-47.44,3-62.47-2.09-5.64-6-9-6-9-2.96-2.85-9.34-4.67-12-5-5.47-.83-15.4-5.99-20-11-10.65-11.61-7.13-38.2,7-49,12.64-8.6,22.9-7.57,33-7,3.71,.26,6.8,.67,9,1,3.94-20.13,13.4-32.8,31-39,19.89-7.41,42.47-.52,56,6,9.09-22.32,29.73-42.63,65-47.02,41.43-4.88,72.03,25.29,86,49.02,4.99-4.31,18.59-14.91,39-17,4.56-.47,33.6-3.06,51,15.17,15.06,15.79,18.91,44.58,19,44.83,2.87-1.04,7.23-2.86,12-6,7.84-5.17,10.03-9.45,15-13,8.25-5.9,18.02-5.37,25-5,35.23,1.94,63.02,35.16,47,74,4.13,23.97,3.98,43.99,3,58-1.18,38.33-11.72,65.99-41,87Z"/>
    <path d="M517,282c6.55,3.73,18.25-1.05,23-3,8.28-3.39,7.94-5.75,14-8,16.86-6.27,35.25,6.15,38,8,5.97,4.03,14.11,9.52,15,18,.69,6.62-3.54,10.27-8,19-5,9.8-4.93,15.5-8,32-4.53,24.32-6.5,21.63-12,48-2.59,12.43-6.74,32.71-8,59-.97,20.2,.87,20.93,0,36-.94,16.35-2.58,44.99-16,66-22.34,34.99-77,53-77,53,0,0-5.84,63.26,2,65,1.8,.4,2.74-1.24,9-4,8.11-3.58,14.56-4.37,18-5,15.98-2.93,40.77-15.83,43-17,33.11-17.39,53.2-52.06,56-57,14.88-26.3,17.45-51.89,22-102,3.85-42.4-.53-35.57,3-68,3.16-29.03,11.87-82.42,21-143,2.69-13.27,1.2-23.75-3.08-32.02-11.62-22.48-43.28-27.34-53.92-28.98-17.87-2.75-31.7,.07-46,3-16.35,3.34-24.66,5.16-31,12-13.47,14.54-11.92,42.78-1,49Z"/>
    <path d="M450,766c.68,6.36,1.46,12.88,2.37,19.54,.82,5.96,1.69,11.78,2.63,17.46-3.17,.67-7.86,1.62-13.56,2.58-20.87,3.54-36.73,4.3-44.73,4.69-42.57,2.12-38.78,3.29-78.71,4.72-34.91,1.25-60.08,2.15-94,1-36.61-1.25-68.79-2.49-110-11-26.05-5.38-47.27-11.92-62-17,0,0,0,0,0,0-.15-.06-25.76-9.74-35-22-.94-1.24-5.22-6.93-5-13,.11-2.88,1-6,1-6s.73-2.56,2-5c6.65-12.83,27-22,27-22,19.66-8.86,38.26-14.99,52-19,2.67-26.33,5.33-52.67,8-79H478c21.33,21.65,23.43,34.83,21,43-2.26,7.6-6.2,9.59-6.2,9.59-2.29,2.5-4.12,3.72-4.8,6.41-.82,3.23,.62,6.12,1,7,1.71,3.94,3.16,10.69,2,23,37.57,8.43,61.81,19.93,76,28,8.19,4.66,16.93,10.4,17,18,.09,9.75-14.12,17.02-18,19-14.18,7.25-28.06,6.51-35,6-31.08-2.27-60.5-9.74-81-16Z"/>
    <path d="M116,347c1.94-.38,.07-9.02,6-22,2.16-4.72,6.08-13.02,15-19,11.47-8.2,24.55-7.72,36,0,9.38,5.71,14.16,13.34,17,18,13.54,20.23,10.52,43.79-1,60-4.99,7.4-8.62,8.96-8,10,2.74,4.57,71.3-28.01,81-54,.52-1.39,2.09-6.04,6-11,7.49-9.5,17.94-13.01,21-14,2.13-.69,5.46-1.73,10-2,.61-.04,8.63-.43,17,3,15.23,6.23,22.26,21.29,24,25,7.16,15.32,5.01,29.39,4,36-.56,3.67-1.32,8.42-4,14-5.4,11.25-12.84,13.95-12,16,2.73,6.14,76.83-5.89,72-37,.21-3.02,.94-8.71,7-22,2.02-4.37,12.96-25.79,14-27,7.17-10.22,15.95-14.9,20-17,5.63-2.92,8.13-3,9-3,8.12,0,13.88,7.47,15,9,1.46,1.98,2.3,3.99,4,8,.72,1.7,2.41,5.87,4,12,2.07,7.98,2.74,14.59,3,18,.88,11.66-.53,19.77-3,34-.23,2.66-5.13,22.07-12,25-2.78,1.58-4.93,1.4-5,2-.35,2.9,23.67,15.3,32,8,4.64-4.07,1.6-11.86,1-25-.35-7.68,.73-6.19,8-45,7.26-38.73,5.21-33.89,8-44,1.94-7.04,2.73-8.63,2-11-5.47-17.78-75.11-11.24-90-10-163.48,13.56-294.23-67.76-323-22-18.11,28.81,16.74,88.02,22,87Z"/>
    <path d="M168,402c17.85-11.6,45.67-38.21,31-72,20.33,4.67,40.67,9.33,61,14-10.64,26.65-6.36,62.22,12,72,1.69,.97,6.02,3.23,15,4,7.83,.67,21.89,1.88,34-7,3.88-2.85,6.47-5.92,8-8,29.23,1.64,58.61-24.6,74-46,0,0,14.81,.69,53,50,0,0,36.01,6.69,37,7,0,0-10.84,80.18-11,188-.02,14.34,.56,25.97,1,33-14.92,.36-32.07,0-47-1-.33-5.06-.11-13.05,4-21,5.76-11.15,13.16-11.29,20-23,4.45-7.62,5.11-15.04,6-25,1.98-13.15-1.76-53.94-25-62-14.56-3.05-22.82,.43-41,5-12.73,3.15-19.11,4.69-20,3-1.51-2.88,13.84-8.73,22-25,5.88-11.73,5.34-23.52,5-31-1.46-20.92-7.52-30.83-15-40-2.91-3.33-5.11-5.85-9-8-6-3.52-17.39-5.56-27,1-3.54,2.21-19.01,11.83-24,28-7.45,24.17,13.72,46.08,5,54-2.42,2.2-5.75,2.05-8,2-35.95-.74-82.14,20.04-83,16-.21-.98,1.77-1.37,6-5,10.39-8.92,14.39-20.26,16-25,4.03-10.65,5.29-25.21-1-39-2.82-7.03-7.52-18.7-19-27-18.37-15-37.89-7.2-49,11-3.99,6.27-7.59,21.07-10.19,30.53-.39,2.14-74.81,21.51-79.81,22.47-3.67-57-7.33-114-11-171,19.95,39.25,53.6,100.4,70,95Z"/>
    <path d="M142,615c-2.7-8.61-7.15-11.69-11-18-4.5-7.38-5.04-14.04-6-26-.27-3.4-1.25-17.82,4-36,3.67-12.72,6.38-21.62,15-27,23.99-15.28,43.19,16.35,49,29,5.49,11.43,7.8,20.79,4,37-3.98,12.3-14.25,32.92-39,41-.49,1.92-1.57,4.76-4.08,6.81-1.11,.91-2.7,1.82-2.72,1.79,0,0,.14-.12,.8-.6,23.88,1.18,56.15,5.95,82,8,26.54,1.87,59.29-2.2,60-9,.64-6.08-25.09-6.86-37-28-7.43-14.03-8.97-32.71-1-52,5.7-14.4,17.82-30.62,42-31,18.87,.33,30.78,14.24,34,18,13.07,15.26,13.09,33.04,13,39,.87,30.13-21.45,52.53-49,54,43.84,6.54,101.48,8.77,144,6,2.2-4.5,3.86-11.67,4-16-19.08,8.07-30.32-4.17-39-21-4.15-7.42-10.51-18.78-10-35,.56-17.96,9.08-30.15,12-34,3.92-5.16,8.53-11.81,17-15,4.8-1.81,10.06-2.25,10-3-.07-.93-8.24-1-9-1-19.11-.12-34.32,6.32-44,8-20.69,3.58-29.73-12.24-52-19-31.72-9.63-75.93,14.91-83,18-4.43,1.94-7.02,3.15-11,3,0,0-14.82-.57-48-64-26.67,6.33-53.33,12.67-80,19,1.31,10.71,2.9,28.33,2,50-2.57,61.54-8,109-8,109,21.16,7.09,38.22,7.73,42,1,1.98-3.52,.27-8.94-1-13Z"/>
    <path d="M153,625c-1.39,.13-3,0-3,0s-3.87-.32-7-2c-6.39-3.44-8.18-17.05-6-18,1.73-.75,4.37,7.15,13,10,1.3,.43,3.79,1.25,7,1,0,0,1.58-.12,8-2h0c-.31,.56-5.94,10.42-12,11Z"/>
  </g>
  <g id="KUVIOT">
    <path id="_8.2" data-name="8.2" class="cls-3" d="M463.83,538.19c9.2,32.37-6.44,75.18-27.06,77.64-18.16,2.16-42.14-26.74-42.21-55.77-.07-28.58,23.02-58.17,42.21-55.77,17.71,2.22,26.22,30.96,27.06,33.9Z"/>
    <path id="_8" data-name="8" d="M458,546c8.5,29.6-5.95,68.76-25,71-16.78,1.98-38.93-24.45-39-51-.07-26.14,21.27-53.2,39-51,16.36,2.03,24.23,28.31,25,31Z"/>
    <path id="_7.2" data-name="7.2" class="cls-3" d="M344.53,566.68c0,30.55-20.91,55.32-46.71,55.32-61.94-2.85-61.92-107.81,0-110.65,25.8,0,46.71,24.77,46.71,55.32Z"/>
    <path id="_7" data-name="7" d="M335,571c0,28.17-19.48,51-43.5,51-57.69-2.63-57.66-99.39,0-102,24.02,0,43.5,22.83,43.5,51Z"/>
    <path id="_6.2" data-name="6.2" class="cls-3" d="M198.63,560.15c-.07,30.72-28.44,59.14-46.99,55.66-21.31-3.99-34.05-50.85-22.15-84.03,2.28-6.35,8.82-24.59,22.15-27.28,19.05-3.85,47.06,25.07,46.99,55.66Z"/>
    <path id="_6" data-name="6" d="M191,566c-.06,28.15-26.32,54.19-43.5,51-19.72-3.66-31.52-46.6-20.5-77,2.11-5.82,8.16-22.53,20.5-25,17.64-3.53,43.56,22.97,43.5,51Z"/>
    <path id="_5.2" data-name="5.2" class="cls-3" d="M407.25,458.04c1.11,24.43-12.32,55.86-33.76,58.47-22.36,2.73-46.62-26.68-46.63-55.23,0-28.55,24.23-58.04,46.63-55.23,20.23,2.54,32.8,30.68,33.76,51.98Z"/>
    <path id="_5" data-name="5" d="M397,466c1.04,22.56-11.49,51.58-31.5,54-20.86,2.52-43.49-24.64-43.5-51,0-26.36,22.61-53.6,43.5-51,18.87,2.35,30.6,28.34,31.5,48Z"/>
    <path id="_4.2" data-name="4.2" class="cls-3" d="M271.25,461.27c-.01,28.14-23.44,57.54-46.65,55.25-22.98-2.27-37.94-34.86-35.92-60.67,1.63-20.86,15.17-47.67,35.92-49.83,23.29-2.42,46.66,27.13,46.65,55.25Z"/>
    <path id="_4" data-name="4" d="M264,469c-.01,25.97-21.86,53.11-43.5,51-21.43-2.09-35.38-32.17-33.5-56,1.52-19.25,14.14-44.01,33.5-46,21.72-2.24,43.51,25.05,43.5,51Z"/>
    <path id="_3.2" data-name="3.2" class="cls-3" d="M475.91,351.69c.9,20.39-4.67,54.26-21.51,58.31-17.48,4.2-45.64-24.08-45.65-54.07-.01-30.09,28.32-58.34,45.65-54.07,16.18,3.99,20.9,35.89,21.51,49.83Z"/>
    <path id="_3" data-name="3" d="M464,366c.86,19.23-4.45,51.18-20.5,55-16.66,3.96-43.49-22.72-43.5-51-.01-28.38,26.99-55.03,43.5-51,15.42,3.77,19.91,33.85,20.5,47Z"/>
    <path id="_2.2" data-name="2.2" class="cls-3" d="M345.28,365.55c0,29.13-19.94,52.74-44.53,52.74-59.05-2.72-59.03-102.77,0-105.48,24.59,0,44.53,23.61,44.53,52.74Z"/>
    <path id="_2" data-name="2" d="M335,378c0,28.17-19.48,51-43.5,51-57.69-2.63-57.66-99.39,0-102,24.02,0,43.5,22.83,43.5,51Z"/>
    <path id="_1.2" data-name="1.2" class="cls-3" d="M198.83,356.3c-1.52,27.29-26.46,51.93-46.88,49.56-25.43-2.94-44.13-47.75-31.62-78.2,.45-1.08,10.89-25.53,31.07-27.54,23.5-2.34,49.06,26.86,47.43,56.17Z"/>
    <path id="_1" data-name="1" d="M190,368c-1.4,24.78-24.27,47.15-43,45-23.32-2.67-40.48-43.36-29-71,.41-.98,9.99-23.18,28.5-25,21.56-2.12,45,24.38,43.5,51Z"/>
  </g>
</svg>