<?xml version="1.0" encoding="UTF-8"?>
<svg xmlns="http://www.w3.org/2000/svg" viewBox="0 0 487 690">
  <defs>
    <style>
      .cls-1 {
        fill: none;
        stroke: #000;
        stroke-miterlimit: 10;
        stroke-width: 30px;
      }
    </style>
  </defs>
  <g id="Layer_1_copy" data-name="Layer 1 copy">
    <g>
      <path d="M189.5,520.5c-10.75,0-19.5-7.71-19.5-17.18V188.68c0-9.47,8.75-17.18,19.5-17.18h109c10.75,0,19.5,7.71,19.5,17.18V503.32c0,9.47-8.75,17.18-19.5,17.18h-109Z"/>
      <path d="M298.5,172c10.48,0,19,7.48,19,16.68V503.32c0,9.2-8.52,16.68-19,16.68h-109c-10.48,0-19-7.48-19-16.68V188.68c0-9.2,8.52-16.68,19-16.68h109m0-1h-109c-11.05,0-20,7.91-20,17.68V503.32c0,9.76,8.95,17.68,20,17.68h109c11.05,0,20-7.91,20-17.68V188.68c0-9.76-8.95-17.68-20-17.68h0Z"/>
    </g>
  </g>
  <g id="Layer_1_copy_2" data-name="Layer 1 copy 2">
    <g>
      <path d="M86.68,420c-9.47,0-17.18-8.75-17.18-19.5v-109c0-10.75,7.71-19.5,17.18-19.5H401.32c9.47,0,17.18,8.75,17.18,19.5v109c0,10.75-7.71,19.5-17.18,19.5H86.68Z"/>
      <path d="M401.32,272.5c9.2,0,16.68,8.52,16.68,19v109c0,10.48-7.48,19-16.68,19H86.68c-9.2,0-16.68-8.52-16.68-19v-109c0-10.48,7.48-19,16.68-19H401.32m0-1H86.68c-9.76,0-17.68,8.95-17.68,20v109c0,11.05,7.91,20,17.68,20H401.32c9.76,0,17.68-8.95,17.68-20v-109c0-11.05-7.91-20-17.68-20h0Z"/>
    </g>
  </g>
  <g id="Layer_3" data-name="Layer 3">
    <rect class="cls-1" x="16" y="118.5" width="455" height="455" rx="40" ry="40"/>
  </g>
</svg>