<?xml version="1.0" encoding="UTF-8"?>
<svg xmlns="http://www.w3.org/2000/svg" viewBox="0 0 487 690">
  <g id="Layer_1" data-name="Layer 1">
    <path d="M409.84,281l-52.79,321.5H123.99l-24.25-168.58-21.99-152.92H409.84m64.77-60H14.27c-3.04,0-5.38,2.7-4.95,5.71,20.69,143.84,41.38,287.67,62.06,431.51,.35,2.46,2.46,4.29,4.95,4.29H403.76c2.45,0,4.53-1.77,4.93-4.19,23.62-143.84,47.24-287.67,70.86-431.51,.5-3.04-1.85-5.81-4.93-5.81h0Z"/>
    <g>
      <polygon points="174.36 553 141.3 331 346.21 331 310 553 174.36 553"/>
      <path d="M310.92,361l-26.43,162h-84.27l-24.13-162h134.82m64.65-60H112.35c-3.08,0-5.44,2.74-4.99,5.79l40.5,271.91c.37,2.47,2.49,4.3,4.99,4.3h178.36c2.47,0,4.58-1.79,4.98-4.23,14.78-90.64,29.57-181.27,44.35-271.91,.5-3.07-1.87-5.86-4.98-5.86h0Z"/>
    </g>
  </g>
  <g id="Layer_2" data-name="Layer 2">
    <g>
      <polygon points="48.94 157 60.76 118 429.03 118 440.45 157 48.94 157"/>
      <path d="M447.76,88H42.21c-2.2,0-4.14,1.44-4.78,3.55-8.99,29.67-17.98,59.34-26.97,89.01-.97,3.21,1.43,6.45,4.78,6.45H473.83c3.33,0,5.73-3.2,4.8-6.4-8.69-29.67-17.38-59.34-26.07-89.01-.62-2.13-2.58-3.59-4.8-3.59h0Z"/>
    </g>
    <g>
      <path d="M325.49,79H163.87c-3.25,0-5.64-3.04-4.89-6.2,3.2-13.32,6.39-26.63,9.59-39.95,.54-2.26,2.56-3.85,4.89-3.85h144.84c2.43,0,4.51,1.74,4.94,4.13,2.4,13.32,4.79,26.63,7.19,39.95,.55,3.08-1.81,5.91-4.94,5.91Z"/>
      <path d="M318.3,29H173.46c-2.32,0-4.34,1.59-4.89,3.85-3.2,13.32-6.39,26.63-9.59,39.95-.76,3.16,1.64,6.2,4.89,6.2h161.62c3.13,0,5.5-2.83,4.94-5.91-2.4-13.32-4.79-26.63-7.19-39.95-.43-2.39-2.51-4.13-4.94-4.13h0Z"/>
    </g>
  </g>
</svg>