<?xml version="1.0" encoding="UTF-8"?>
<svg xmlns="http://www.w3.org/2000/svg" xmlns:xlink="http://www.w3.org/1999/xlink" viewBox="0 0 860 859">
  <defs>
    <style>
      .cls-1 {
        filter: url(#drop-shadow-16);
      }

      .cls-1, .cls-2, .cls-3, .cls-4, .cls-5, .cls-6, .cls-7, .cls-8, .cls-9, .cls-10, .cls-11, .cls-12, .cls-13, .cls-14, .cls-15, .cls-16, .cls-17 {
        stroke: #8cf1ff;
      }

      .cls-1, .cls-3, .cls-11, .cls-15, .cls-18 {
        stroke-miterlimit: 10;
      }

      .cls-1, .cls-11, .cls-18 {
        stroke-width: 2px;
      }

      .cls-2 {
        filter: url(#drop-shadow-12);
      }

      .cls-2, .cls-3, .cls-4, .cls-5, .cls-6, .cls-7, .cls-8, .cls-9, .cls-10, .cls-12, .cls-13, .cls-14, .cls-16, .cls-17 {
        stroke-width: 8px;
      }

      .cls-2, .cls-4, .cls-5, .cls-6, .cls-19, .cls-7, .cls-8, .cls-9, .cls-10, .cls-12, .cls-13, .cls-14, .cls-16, .cls-17 {
        fill: #8cf1ff;
      }

      .cls-2, .cls-4, .cls-5, .cls-6, .cls-7, .cls-8, .cls-9, .cls-10, .cls-12, .cls-13, .cls-14, .cls-16, .cls-17 {
        stroke-linecap: round;
        stroke-linejoin: round;
      }

      .cls-3 {
        filter: url(#drop-shadow-8);
      }

      .cls-3, .cls-15, .cls-18 {
        fill: none;
      }

      .cls-4 {
        filter: url(#drop-shadow-14);
      }

      .cls-5 {
        filter: url(#drop-shadow-10);
      }

      .cls-6 {
        filter: url(#drop-shadow-9);
      }

      .cls-7 {
        filter: url(#drop-shadow-5);
      }

      .cls-8 {
        filter: url(#drop-shadow-7);
      }

      .cls-9 {
        filter: url(#drop-shadow-3);
      }

      .cls-10 {
        filter: url(#drop-shadow-4);
      }

      .cls-11 {
        filter: url(#drop-shadow-15);
      }

      .cls-12 {
        filter: url(#drop-shadow-11);
      }

      .cls-13 {
        filter: url(#drop-shadow-13);
      }

      .cls-14 {
        filter: url(#drop-shadow-2);
      }

      .cls-15 {
        filter: url(#drop-shadow-18);
        stroke-width: 4px;
      }

      .cls-16 {
        filter: url(#drop-shadow-6);
      }

      .cls-18 {
        filter: url(#drop-shadow-17);
        stroke: #000;
      }

      .cls-17 {
        filter: url(#drop-shadow-1);
      }
    </style>
    <filter id="drop-shadow-1" filterUnits="userSpaceOnUse">
      <feOffset dx="4" dy="1"/>
      <feGaussianBlur result="blur" stdDeviation="2"/>
      <feFlood flood-color="#000" flood-opacity=".75"/>
      <feComposite in2="blur" operator="in"/>
      <feComposite in="SourceGraphic"/>
    </filter>
    <filter id="drop-shadow-2" filterUnits="userSpaceOnUse">
      <feOffset dx="4" dy="1"/>
      <feGaussianBlur result="blur-2" stdDeviation="2"/>
      <feFlood flood-color="#000" flood-opacity=".75"/>
      <feComposite in2="blur-2" operator="in"/>
      <feComposite in="SourceGraphic"/>
    </filter>
    <filter id="drop-shadow-3" filterUnits="userSpaceOnUse">
      <feOffset dx="4" dy="1"/>
      <feGaussianBlur result="blur-3" stdDeviation="2"/>
      <feFlood flood-color="#000" flood-opacity=".75"/>
      <feComposite in2="blur-3" operator="in"/>
      <feComposite in="SourceGraphic"/>
    </filter>
    <filter id="drop-shadow-4" filterUnits="userSpaceOnUse">
      <feOffset dx="4" dy="1"/>
      <feGaussianBlur result="blur-4" stdDeviation="2"/>
      <feFlood flood-color="#000" flood-opacity=".75"/>
      <feComposite in2="blur-4" operator="in"/>
      <feComposite in="SourceGraphic"/>
    </filter>
    <filter id="drop-shadow-5" filterUnits="userSpaceOnUse">
      <feOffset dx="4" dy="1"/>
      <feGaussianBlur result="blur-5" stdDeviation="2"/>
      <feFlood flood-color="#000" flood-opacity=".75"/>
      <feComposite in2="blur-5" operator="in"/>
      <feComposite in="SourceGraphic"/>
    </filter>
    <filter id="drop-shadow-6" filterUnits="userSpaceOnUse">
      <feOffset dx="4" dy="1"/>
      <feGaussianBlur result="blur-6" stdDeviation="2"/>
      <feFlood flood-color="#000" flood-opacity=".75"/>
      <feComposite in2="blur-6" operator="in"/>
      <feComposite in="SourceGraphic"/>
    </filter>
    <filter id="drop-shadow-7" filterUnits="userSpaceOnUse">
      <feOffset dx="4" dy="1"/>
      <feGaussianBlur result="blur-7" stdDeviation="2"/>
      <feFlood flood-color="#000" flood-opacity=".75"/>
      <feComposite in2="blur-7" operator="in"/>
      <feComposite in="SourceGraphic"/>
    </filter>
    <filter id="drop-shadow-8" filterUnits="userSpaceOnUse">
      <feOffset dx="2" dy="3"/>
      <feGaussianBlur result="blur-8" stdDeviation="5"/>
      <feFlood flood-color="#000" flood-opacity=".5"/>
      <feComposite in2="blur-8" operator="in"/>
      <feComposite in="SourceGraphic"/>
    </filter>
    <filter id="drop-shadow-9" filterUnits="userSpaceOnUse">
      <feOffset dx="4" dy="1"/>
      <feGaussianBlur result="blur-9" stdDeviation="2"/>
      <feFlood flood-color="#000" flood-opacity=".75"/>
      <feComposite in2="blur-9" operator="in"/>
      <feComposite in="SourceGraphic"/>
    </filter>
    <filter id="drop-shadow-10" filterUnits="userSpaceOnUse">
      <feOffset dx="4" dy="1"/>
      <feGaussianBlur result="blur-10" stdDeviation="2"/>
      <feFlood flood-color="#000" flood-opacity=".75"/>
      <feComposite in2="blur-10" operator="in"/>
      <feComposite in="SourceGraphic"/>
    </filter>
    <filter id="drop-shadow-11" filterUnits="userSpaceOnUse">
      <feOffset dx="4" dy="1"/>
      <feGaussianBlur result="blur-11" stdDeviation="2"/>
      <feFlood flood-color="#000" flood-opacity=".75"/>
      <feComposite in2="blur-11" operator="in"/>
      <feComposite in="SourceGraphic"/>
    </filter>
    <filter id="drop-shadow-12" filterUnits="userSpaceOnUse">
      <feOffset dx="4" dy="1"/>
      <feGaussianBlur result="blur-12" stdDeviation="2"/>
      <feFlood flood-color="#000" flood-opacity=".75"/>
      <feComposite in2="blur-12" operator="in"/>
      <feComposite in="SourceGraphic"/>
    </filter>
    <filter id="drop-shadow-13" filterUnits="userSpaceOnUse">
      <feOffset dx="4" dy="1"/>
      <feGaussianBlur result="blur-13" stdDeviation="2"/>
      <feFlood flood-color="#000" flood-opacity=".75"/>
      <feComposite in2="blur-13" operator="in"/>
      <feComposite in="SourceGraphic"/>
    </filter>
    <filter id="drop-shadow-14" filterUnits="userSpaceOnUse">
      <feOffset dx="4" dy="1"/>
      <feGaussianBlur result="blur-14" stdDeviation="2"/>
      <feFlood flood-color="#000" flood-opacity=".75"/>
      <feComposite in2="blur-14" operator="in"/>
      <feComposite in="SourceGraphic"/>
    </filter>
    <filter id="drop-shadow-15" filterUnits="userSpaceOnUse">
      <feOffset dx="2" dy="3"/>
      <feGaussianBlur result="blur-15" stdDeviation="5"/>
      <feFlood flood-color="#000" flood-opacity=".5"/>
      <feComposite in2="blur-15" operator="in"/>
      <feComposite in="SourceGraphic"/>
    </filter>
    <filter id="drop-shadow-16" filterUnits="userSpaceOnUse">
      <feOffset dx="2" dy="3"/>
      <feGaussianBlur result="blur-16" stdDeviation="5"/>
      <feFlood flood-color="#000" flood-opacity=".5"/>
      <feComposite in2="blur-16" operator="in"/>
      <feComposite in="SourceGraphic"/>
    </filter>
    <filter id="drop-shadow-17" filterUnits="userSpaceOnUse">
      <feOffset dx="2" dy="4"/>
      <feGaussianBlur result="blur-17" stdDeviation="5"/>
      <feFlood flood-color="#000" flood-opacity=".5"/>
      <feComposite in2="blur-17" operator="in"/>
      <feComposite in="SourceGraphic"/>
    </filter>
    <filter id="drop-shadow-18" filterUnits="userSpaceOnUse">
      <feOffset dx="2" dy="4"/>
      <feGaussianBlur result="blur-18" stdDeviation="5"/>
      <feFlood flood-color="#000" flood-opacity=".5"/>
      <feComposite in2="blur-18" operator="in"/>
      <feComposite in="SourceGraphic"/>
    </filter>
  </defs>
  <g id="Layer_10" data-name="Layer 10">
    <line class="cls-17" x1="258" y1="143" x2="258" y2="224.68"/>
    <line class="cls-14" x1="282.71" y1="123" x2="282.71" y2="238.49"/>
    <line class="cls-9" x1="311.37" y1="133" x2="311.37" y2="229.79"/>
    <line class="cls-10" x1="339.54" y1="110.81" x2="339.54" y2="250.72"/>
    <line class="cls-7" x1="373.55" y1="124" x2="373.55" y2="239.49"/>
    <line class="cls-16" x1="403.28" y1="97.02" x2="403.28" y2="260.94"/>
    <line class="cls-8" x1="433.1" y1="143" x2="433.1" y2="224.68"/>
    <path class="cls-3" d="M456.66,124.81"/>
    <line class="cls-6" x1="460.27" y1="253.72" x2="460.27" y2="113.81"/>
    <line class="cls-5" x1="488.66" y1="133" x2="488.66" y2="229.79"/>
    <line class="cls-12" x1="520.45" y1="97.02" x2="522.47" y2="260.94"/>
    <line class="cls-2" x1="550.48" y1="123" x2="550.48" y2="238.49"/>
    <line class="cls-13" x1="579.46" y1="133" x2="579.46" y2="229.79"/>
    <line class="cls-4" x1="609" y1="143" x2="609" y2="224.68"/>
  </g>
  <g id="UKKO_copy" data-name="UKKO copy">
    <path class="cls-11" d="M65,650c28.39,46.65,60.4,78.27,74,91,20.12,18.84,39.04,32.93,54,43,10.88-19.88,24.69-51.54,25.93-91,2.78-88.86-60.13-147.82-33.04-184.18,9.84-13.2,32.95-25.21,51.77-30.43,20.69-5.74,39.85-4.25,44-15.21,2.31-6.09-1.06-13.28-3.88-17.98-2.85-2.22-4.47-4.5-5.37-6.01-.68-1.14-.96-1.87-1.1-2.28-.18-.51-1.47-4.27,0-6.92,.82-1.47,1.7-1.16,3.88-2.77,.56-.42,5.65-4.17,5.18-8.3-.24-2.11-1.85-3.5-2.59-4.15-3.32-2.89-7.77-2.4-7.77-2.77,0-.47,7.33,1.03,10.35-2.77,2.04-2.56,2-7.38,0-9.68-1.6-1.84-3.41-.87-5.18-2.77-1.85-1.98-2.49-5.86-1.29-8.3,2.13-4.35,10.17-.1,15.53-5.53,.58-.59,2-2.03,2.59-4.15,1.99-7.22-7.84-14.85-14.24-23.51-4.68-6.33-9.98-16.56-11.65-33.19,1.25-16.16,1.51-48.41-15.53-80.21-33.45-62.44-116.2-69.01-132.01-70.53-8.74-.84-16.06-.94-21.16-.87C75.03,199.59-10.7,317.67,5,473c9.12,90.27,49.06,159.02,60,177Z"/>
  </g>
  <g id="UKKO">
    <path class="cls-1" d="M791.5,642.5c-11.44,18.09-30.57,55.23-68.5,93.5-19.61,19.79-38.14,34.21-52,44-9.68-18.39-22.7-48.8-24-87-3.04-89.03,60.04-147.95,33.04-184.18-9.84-13.2-32.95-25.21-51.77-30.43-20.69-5.74-39.85-4.25-44-15.21-2.31-6.09,1.06-13.28,3.88-17.98,2.85-2.22,4.47-4.5,5.37-6.01,.68-1.14,.96-1.87,1.1-2.28,.18-.51,1.47-4.27,0-6.92-.82-1.47-1.7-1.16-3.88-2.77-.56-.42-5.65-4.17-5.18-8.3,.24-2.11,1.85-3.5,2.59-4.15,3.32-2.89,7.77-2.4,7.77-2.77,0-.47-7.33,1.03-10.35-2.77-2.04-2.56-2-7.38,0-9.68,1.6-1.84,3.41-.87,5.18-2.77,1.85-1.98,2.49-5.86,1.29-8.3-2.13-4.35-10.17-.1-15.53-5.53-.58-.59-2-2.03-2.59-4.15-1.99-7.22,7.84-14.85,14.24-23.51,4.68-6.33,9.98-16.56,11.65-33.19-1.25-16.16-1.51-48.41,15.53-80.21,33.45-62.44,116.2-69.01,132.01-70.53,8.74-.84,16.06-.94,21.16-.87,22.31,28.66,78.7,108.89,86,227,7.7,124.56-43.91,214.82-63,245Z"/>
  </g>
  <g id="OUTER_CIRCLE" data-name="OUTER CIRCLE">
    <ellipse class="cls-18" cx="429.93" cy="429.55" rx="428.18" ry="428.04"/>
  </g>
  <g id="CIRCLE">
    <ellipse class="cls-15" cx="429.93" cy="429.55" rx="426.68" ry="426.54"/>
  </g>
  <g id="SIRPPI2">
    <path class="cls-19" d="M98,189c17.59-30.63,26.73-42.73,45-61h0c43.99-45.57,118.37-89.39,118-90-.36-.61-67.87,24.85-133,90-15.21,15.21-54.46,56.15-85,121-23.07,48.99-32.07,92.13-36,118-11.69,76.92,.64,138.08,3,138,3.09-.11-10.49-105.49,26-191,3.47-8.13,12.46-28.01,22-48,18.04-37.76,31.08-61.46,40-77Z"/>
  </g>
  <g id="SIRPPI">
    <path class="cls-19" d="M850,353c1.91-.03,17.25,76.5-4,170-17.47,76.88-51.72,130.17-67,152-34.41,49.14-71.76,80.41-94,97-66.9,49.91-130.69,66.69-131,66-.5-1.1,33.08-14.33,78-46,30.42-21.45,49.62-39.78,54-44,23.3-22.47,40.25-44.13,52-61,13.19-17.66,29.93-41.86,47-72,10.24-18.09,33.22-58.67,48-105,27.56-86.4,15.17-156.97,17-157Z"/>
  </g>
</svg>