<?xml version="1.0" encoding="UTF-8"?>
<svg xmlns="http://www.w3.org/2000/svg" xmlns:xlink="http://www.w3.org/1999/xlink" viewBox="0 0 705 882">
  <defs>
    <style>
      .cls-1 {
        fill: rgba(26, 26, 26, .94);
      }

      .cls-2 {
        fill: #fff;
      }

      .cls-3 {
        fill: #ff6e31;
        stroke-width: 8px;
      }

      .cls-3, .cls-4, .cls-5, .cls-6, .cls-7, .cls-8 {
        stroke-miterlimit: 10;
      }

      .cls-3, .cls-4, .cls-7 {
        stroke: #fff;
      }

      .cls-9 {
        fill: rgba(229, 170, 45, .96);
      }

      .cls-4, .cls-5, .cls-6 {
        fill: none;
      }

      .cls-4, .cls-6 {
        stroke-width: 20px;
      }

      .cls-5 {
        filter: url(#drop-shadow-2);
        stroke-width: 22px;
      }

      .cls-5, .cls-6, .cls-8 {
        stroke: #000;
      }

      .cls-6 {
        filter: url(#drop-shadow-1);
      }

      .cls-7 {
        fill: #e5aa2d;
      }

      .cls-7, .cls-8 {
        stroke-width: 10px;
      }
    </style>
    <filter id="drop-shadow-1" filterUnits="userSpaceOnUse">
      <feOffset dx="5" dy="5"/>
      <feGaussianBlur result="blur" stdDeviation="8"/>
      <feFlood flood-color="#000" flood-opacity=".25"/>
      <feComposite in2="blur" operator="in"/>
      <feComposite in="SourceGraphic"/>
    </filter>
    <filter id="drop-shadow-2" filterUnits="userSpaceOnUse">
      <feOffset dx="5" dy="5"/>
      <feGaussianBlur result="blur-2" stdDeviation="8"/>
      <feFlood flood-color="#000" flood-opacity=".25"/>
      <feComposite in2="blur-2" operator="in"/>
      <feComposite in="SourceGraphic"/>
    </filter>
  </defs>
  <g id="Layer_11" data-name="Layer 11">
    <path class="cls-6" d="M111,723c6.99-89.18,11.24-142.33,11-227-1.31-80.64-7.22-136.6-18-202-12.23-17.19-13.34-29.68-12-38,1.07-6.64,3.29-8.05,6-20,4.59-22.61,3.95-36.57-1-57-20.59,.18-37.17-12.9-40-29-3.05-17.35,11.27-30.36,12-31,11.27-9.91,28.17-11.95,43-5,.27-19.25,13.71-36.56,32-42,26.1-8.9,50.66,7.67,54,10,29.02-68.81,121.88-65.91,149,4,.98-1.17,24.42-27.99,58-22,18.3,3.26,35.8,15.6,43,32,6.26,14.25,2.03,25.38,8,28,8.55,3.76,17.61-18.86,41-24,22.69-4.98,42,10.19,43,11,24.05,20.09,21.33,48.68,14,63,1.87,22.55,3.89,45.46,6,68,6.73-1.85,16.32-4,28-5,12.9-1.11,24.82-2.13,39,2,8.44,2.46,28.71,8.37,37,26,7,15.09,3.67,37.16,0,48-4.74,15.89-7.16,31.26-12,62-7.35,50.02-7.38,90.37-10,145-.89,19.09-1.34,28.72-2,33-13.28,82.12-78.34,121.8-140,137,.73,12.72,2.16,27.13,4,40,12.34,2.13,32.92,7.8,44,12,22.73,8.19,33.13,15.05,36,17,12.73,8.63,14.03,13.16,14,16-.04,3.91-2.64,7.32-7,11-14.52,12.23-35.69,16.42-48,18-20.67,16.67-41.33,33.33-62,50l-9-36c-34.03,6.36-94.47,13.66-140.78,15.07-41.41,1.59-77.6,.25-101.22-1.07-60.11-3.35-90.16-5.02-121-14-24.1-7.01-81.77-23.8-82-47-.18-18.37,35.71-37.09,84-48Z"/>
    <path class="cls-5" d="M493,630c38.02-4.87,69.78-31.2,83-68,7.21-17.49,8.91-39.9,12-84,4.2-62.73,.43-46.61,17-108,13.74-51.6,14.44-57.8,11-64-9.91-17.9-43.82-17.14-59-16-17.91,66.15-23.11,27.67-24-41-25.12,108.66-42.06,265.01-40,381Z"/>
  </g>
  <g id="COASTER_copy" data-name="COASTER copy">
    <path class="cls-4" d="M100,802c82.5,27.19,227.5,21.19,299.47,15.97,11.8-1.01,31.87-2.75,55.51-6.21,82.26-12.81,214.91-32.32,51.02-74.57,7.65,20.65-9.54,21.47-47.86,26.48-35.36,4.71-70.12,7.29-95.72,8.15-13.77,.32-50.02,1.64-66.19,2.04-12.03,.34-43.63-.09-61.1-1.02-45.78-2.22-82.7-2.83-128.31-13.24,.58-3.11,1.04-6.9,1.02-11.2-.03-5.75-.89-10.65-1.84-14.39-6.48,1.88-64.19,18.99-63,38,.8,12.84,28.14,21.19,57,30Z"/>
  </g>
  <g id="COASTER">
    <path class="cls-8" d="M50.5,772.14c-.05,15.84,63.47,28.5,90.16,33.82,21.58,4.3,56.88,9.96,128.77,10.83,47.12,.57,103.45,.64,176.15-9.39,128.51-17.37,179.24-33.64,47.82-69.9,7.17,19.36-8.94,20.13-44.86,24.82-33.15,4.41-65.73,6.83-89.73,7.64-12.91,.3-46.89,1.54-62.04,1.91-11.28,.32-40.9-.09-57.27-.96-42.92-2.09-77.52-2.66-120.27-12.41,.21-6.23,1.37-14.58,2.87-20.65,0,0-71.55,19.43-71.6,34.29Z"/>
  </g>
  <g id="Layer_9" data-name="Layer 9">
    <path class="cls-3" d="M482,850l-18-66c27.33,5.33,54.67,10.67,82,16-21.33,16.67-42.67,33.33-64,50Z"/>
  </g>
  <g id="KAHVA_copy" data-name="KAHVA copy">
    <path class="cls-2" d="M498.76,692.5c51.51-13.07,81.42-36.1,97.98-52.18,75.74-73.57,29.5-154.71,68.16-336.53,2.31-10.85,6.93-31.73-4.26-47.92-24.82-35.92-106.43-18.26-133.12-11.71l2.13,39.4c54.87-12.64,79.48-3.34,88.39,8.52,18.9,23.35-14.6,52.42-23.43,138.45-5.62,54.78,2.47,96.49-19.17,144.84-14.75,36.01-48.74,57.45-80.94,61.77l4.26,55.38Z"/>
  </g>
  <g id="KAHVA">
    <path class="cls-2" d="M498.5,678.5c48.37-12.28,76.46-33.9,92-49,71.12-69.08,27.7-145.27,64-316,2.17-10.19,6.5-29.8-4-45-23.3-33.73-99.93-17.15-125-11l2,37c51.52-11.87,74.63-3.13,83,8,17.75,21.93-13.71,49.22-22,130-5.28,51.43,2.32,90.6-18,136-13.85,33.81-45.76,53.95-76,58l4,52Z"/>
  </g>
  <g id="GLASS">
    <path class="cls-7" d="M518.26,318.13c-26.22,122.64-36.69,280.55-15.26,426.5,.81,5.55-2.93,10.73-8.45,11.74-27.47,5.01-65.56,10.8-111.05,14.14-118.07,8.65-231.39-3.26-265.03-9.09-5.61-.97-9.4-6.27-8.49-11.89,23.91-148.86,19.15-307.69,.59-442.49-.97-7.08,5.28-13.02,12.3-11.67,52.45,10.12,114.04,18.3,183.14,20.64,76.04,2.58,143.73-2.51,200.63-10.35,7.16-.99,13.14,5.41,11.63,12.49Z"/>
    <path class="cls-7" d="M516.01,182.73c0-.49,0-.97,.01-1.46,.08-3.29-.34-7.97-3.03-12.27-17.49-27.95-94.88,18.09-197,19-111.77,1-193.54-50.01-212-21-4.07,6.4-3.46,14.21-2.23,19.96,.18,.83,.3,1.68,.39,2.53,2.33,23.14,.32,40.5-2.16,52.51-1.79,8.71-5.35,21.52,.02,35.5,.02,.05,.04,.09,.05,.14,3.13,8.07,10.37,13.86,18.88,15.43,58.98,10.86,128.68,19.42,207.05,20.93,65.96,1.28,125.76-2.67,177.97-8.97,10.96-1.32,19.74-9.6,21.87-20.43,2.41-12.22,2.56-25.38,.34-35.77-.12-.56-.26-1.1-.42-1.65-5.59-19.48-9.37-45.71-9.75-64.46Z"/>
  </g>
  <g id="KUVIOT">
    <path id="_8.2" data-name="8.2" class="cls-1" d="M476.68,559.91c8.99,31.3-6.29,72.71-26.44,75.08-17.74,2.09-41.17-25.86-41.24-53.93-.07-27.64,22.49-56.26,41.24-53.93,17.3,2.15,25.62,29.94,26.44,32.78Z"/>
    <path id="_8" data-name="8" class="cls-9" d="M473,564c8.5,29.6-5.95,68.76-25,71-16.78,1.98-38.93-24.45-39-51-.07-26.14,21.27-53.2,39-51,16.36,2.03,24.23,28.31,25,31Z"/>
    <path id="_7.2" data-name="7.2" class="cls-1" d="M354.26,586.5c0,29.55-20.43,53.5-45.63,53.5-60.51-2.76-60.49-104.26,0-107,25.2,0,45.63,23.95,45.63,53.5Z"/>
    <path id="_7" data-name="7" class="cls-9" d="M350,589c0,28.17-19.48,51-43.5,51-57.69-2.63-57.66-99.39,0-102,24.02,0,43.5,22.83,43.5,51Z"/>
    <path id="_6.2" data-name="6.2" class="cls-1" d="M209.78,581.16c-.06,29.71-27.78,57.19-45.91,53.83-20.81-3.86-33.26-49.18-21.64-81.27,2.22-6.14,8.62-23.78,21.64-26.38,18.62-3.73,45.97,24.25,45.91,53.83Z"/>
    <path id="_6" data-name="6" class="cls-9" d="M206,584c-.06,28.15-26.32,54.19-43.5,51-19.72-3.66-31.52-46.6-20.5-77,2.11-5.82,8.16-22.53,20.5-25,17.64-3.53,43.56,22.97,43.5,51Z"/>
    <path id="_5.2" data-name="5.2" class="cls-1" d="M415.54,481.44c1.08,23.62-12.03,54.02-32.99,56.55-21.84,2.64-45.54-25.8-45.55-53.41,0-27.61,23.68-56.13,45.55-53.41,19.76,2.46,32.04,29.67,32.99,50.26Z"/>
    <path id="_5" data-name="5" class="cls-9" d="M412,484c1.04,22.56-11.49,51.58-31.5,54-20.86,2.52-43.49-24.64-43.5-51,0-26.36,22.61-53.6,43.5-51,18.87,2.35,30.6,28.34,31.5,48Z"/>
    <path id="_4.2" data-name="4.2" class="cls-1" d="M282.68,484.56c-.01,27.21-22.9,55.64-45.57,53.43-22.45-2.19-37.07-33.71-35.1-58.67,1.59-20.17,14.82-46.1,35.1-48.19,22.76-2.34,45.59,26.24,45.57,53.43Z"/>
    <path id="_4" data-name="4" class="cls-9" d="M279,487c-.01,25.97-21.86,53.11-43.5,51-21.43-2.09-35.38-32.17-33.5-56,1.52-19.25,14.14-44.01,33.5-46,21.72-2.24,43.51,25.05,43.5,51Z"/>
    <path id="_3.2" data-name="3.2" class="cls-1" d="M482.61,378.6c.88,19.71-4.56,52.48-21.02,56.39-17.08,4.06-44.58-23.29-44.6-52.29-.01-29.1,27.67-56.42,44.6-52.29,15.81,3.86,20.42,34.7,21.02,48.19Z"/>
    <path id="_3" data-name="3" class="cls-9" d="M479,384c.86,19.23-4.45,51.18-20.5,55-16.66,3.96-43.49-22.72-43.5-51-.01-28.38,26.99-55.03,43.5-51,15.42,3.77,19.91,33.85,20.5,47Z"/>
    <path id="_2.2" data-name="2.2" class="cls-1" d="M355,392c0,28.17-19.48,51-43.5,51-57.69-2.63-57.66-99.39,0-102,24.02,0,43.5,22.83,43.5,51Z"/>
    <path id="_2" data-name="2" class="cls-9" d="M350,396c0,28.17-19.48,51-43.5,51-57.69-2.63-57.66-99.39,0-102,24.02,0,43.5,22.83,43.5,51Z"/>
    <path id="_1.2" data-name="1.2" class="cls-1" d="M211.93,383.06c-1.49,26.39-25.85,50.22-45.8,47.93-24.84-2.84-43.11-46.18-30.89-75.62,.44-1.05,10.64-24.69,30.36-26.63,22.96-2.26,47.93,25.97,46.33,54.32Z"/>
    <path id="_1" data-name="1" class="cls-9" d="M205,386c-1.4,24.78-24.27,47.15-43,45-23.32-2.67-40.48-43.36-29-71,.41-.98,9.99-23.18,28.5-25,21.56-2.12,45,24.38,43.5,51Z"/>
  </g>
  <g id="VAAHTO_" data-name="VAAHTO?">
    <path class="cls-2" d="M58,149c-2.03-17.19,11.41-34.41,28-39,11.29-3.13,21.13,.37,25,2,2.9-39.8,47.38-53.07,86-31,28.92-66.17,120.68-66.62,151-1,1.62-1.54,27.98-25.77,62-17,26.59,6.86,46.48,30.95,49,60,36.84-48.24,99.43-22.77,103,30,.59,13.83-5.83,15.37-5,35,.58,13.61,4.3,27.79,5,38,.09,1.38,.42,6.97,1.68,14.76,.34,1.56,.32,3.08-1.68,20.24-1.49,11.96,.37,16.57-3.06,32.65-3.38,15.84-12.08,34.17-17.94,33.35-2.61-.36-4.5-4.53-7-17-7.29-36.38,.31-43.34-6-66-3.67-13.19-8.21-17.89-11.64-27.27-2.59-7.1-3.12-12.12-3.36-13.73-.54-3.72-.86-5.86-1-9-.25-5.55,.33-7.47-1-10-1.66-3.16-4.85-4.51-6-5-5.99-2.54-11.37,.09-21,3-.61,.18-9.41,2.12-27,6-9.17,2.02-13.75,3.03-19,4-11.45,2.12-20.42,3.21-27,4-5.17,.62-11.55,1.38-20,2-4.81,.35-11.8,.77-25,1-12.51,.22-20.02,.08-32,0-19.48-.13-29.78,.02-36,0-30.24-.08-136.65-4.52-165-20-2.25-1.23-10.67-6.17-17-3-4.08,2.04-6.57,7.1-7,8-2.64,5.6-1.46,9.41-3,10-2.17,.83-4.41-7.07-11.2-12.73-7.82-6.52-13.47-3.33-21.8-8.27-8.39-4.97-13.92-14.88-15-24Z"/>
  </g>
</svg>